<svg xmlns="http://www.w3.org/2000/svg" viewBox="0 0 300 420">
    <rect x="4" y="4" width="292" height="412" rx="15" fill="#fffdf6" stroke="#583b23" stroke-width="7"/>
    <rect x="14" y="14" width="272" height="392" rx="10" fill="none" stroke="#cda96d" stroke-width="2"/>
    <path d="M18 90 Q150 62 282 90" fill="none" stroke="#d7c28e" stroke-width="2" opacity=".5"/>
    <text x="24" y="48" font-family="Georgia" font-size="31" font-weight="bold" fill="#2f7b3d">K</text>
                 
        <g transform="translate(43,77) scale(0.58)">
          <path d="M0,29 C-25,14 -27,-8 -11,-14 C-7,-27 12,-27 15,-12
                   C31,-7 26,17 7,18 C4,26 2,31 0,36Z"
                fill="#2f7b3d" stroke="#1d5428" stroke-width="2.4"/>
          <path d="M0,-7 L0,31 M0,8 L-11,-1 M0,15 L11,4"
                stroke="#d6e6bd" stroke-width="2" fill="none"/>
        </g><g transform="rotate(180 150 210)"><text x="24" y="48" font-family="Georgia" font-size="31" font-weight="bold" fill="#2f7b3d">K</text>
                 
        <g transform="translate(43,77) scale(0.58)">
          <path d="M0,29 C-25,14 -27,-8 -11,-14 C-7,-27 12,-27 15,-12
                   C31,-7 26,17 7,18 C4,26 2,31 0,36Z"
                fill="#2f7b3d" stroke="#1d5428" stroke-width="2.4"/>
          <path d="M0,-7 L0,31 M0,8 L-11,-1 M0,15 L11,4"
                stroke="#d6e6bd" stroke-width="2" fill="none"/>
        </g></g>
        <g>
          <path d="M78 326 Q150 238 222 326 L222 356 L78 356Z" fill="#7c4f86" stroke="#4c321d" stroke-width="5"/>
          <circle cx="150" cy="180" r="56" fill="#efc39b" stroke="#684128" stroke-width="5"/>
          <path d="M101 153 Q150 110 199 153 L193 174 Q150 151 107 174Z" fill="#b7b7b7" stroke="#474747" stroke-width="4"/>
          <path d="M108 126 L120 101 L139 121 L150 91 L161 121 L180 101 L192 126 Z" fill="#d9af2b" stroke="#825d13" stroke-width="4"/>
          <circle cx="130" cy="181" r="5" fill="#25170f"/><circle cx="170" cy="181" r="5" fill="#25170f"/>
          <path d="M126 213 Q150 225 174 213" fill="none" stroke="#6d3028" stroke-width="4"/>
          <path d="M120 228 Q150 252 180 228" fill="#5b392b"/>
          
        <g transform="translate(150,302) scale(0.85)">
          <path d="M0,29 C-25,14 -27,-8 -11,-14 C-7,-27 12,-27 15,-12
                   C31,-7 26,17 7,18 C4,26 2,31 0,36Z"
                fill="#2f7b3d" stroke="#1d5428" stroke-width="2.4"/>
          <path d="M0,-7 L0,31 M0,8 L-11,-1 M0,15 L11,4"
                stroke="#d6e6bd" stroke-width="2" fill="none"/>
        </g>
          <text x="150" y="385" text-anchor="middle" font-family="Georgia" font-size="18" font-weight="bold" fill="#53341f">XAVER · KÖNIG</text>
        </g>
    </svg>